<svg width="30" height="30" viewBox="0 0 30 30" fill="none" xmlns="http://www.w3.org/2000/svg">
<g clip-path="url(#clip0_66_495)">
<path d="M21.8837 17.8837L21.8725 17.9775C19.1237 16.6075 18.8362 16.425 18.4812 16.9575C18.235 17.3262 17.5175 18.1625 17.3012 18.41C17.0825 18.6537 16.865 18.6725 16.4937 18.5037C16.1187 18.3162 14.915 17.9225 13.49 16.6475C12.38 15.6537 11.635 14.435 11.415 14.06C11.0487 13.4275 11.815 13.3375 12.5125 12.0175C12.6375 11.755 12.5737 11.5487 12.4812 11.3625C12.3875 11.175 11.6412 9.33747 11.3287 8.60497C11.0287 7.87497 10.72 7.96747 10.4887 7.96747C9.76874 7.90497 9.24249 7.91497 8.77874 8.39747C6.76124 10.615 7.26999 12.9025 8.99624 15.335C12.3887 19.775 14.1962 20.5925 17.5012 21.7275C18.3937 22.0112 19.2075 21.9712 19.8512 21.8787C20.5687 21.765 22.06 20.9775 22.3712 20.0962C22.69 19.215 22.69 18.4837 22.5962 18.315C22.5037 18.1462 22.2587 18.0525 21.8837 17.8837Z" fill="#FD7900"/>
<path d="M25.65 4.3113C16.0387 -4.97995 0.1325 1.7588 0.12625 14.8663C0.12625 17.4863 0.8125 20.0413 2.12 22.2976L0 30.0001L7.91875 27.9351C17.8 33.2726 29.995 26.1851 30 14.8738C30 10.9038 28.45 7.16755 25.6312 4.36005L25.65 4.3113ZM27.5025 14.8326C27.495 24.3738 17.0212 30.3326 8.7375 25.4626L8.2875 25.1951L3.6 26.4138L4.85625 21.8576L4.5575 21.3888C-0.5975 13.1826 5.325 2.45755 15.09 2.45755C18.4075 2.45755 21.5212 3.7513 23.8663 6.09505C26.21 8.4188 27.5025 11.5326 27.5025 14.8326Z" fill="#FD7900"/>
</g>
<defs>
<clipPath id="clip0_66_495">
<rect width="30" height="30" fill="white"/>
</clipPath>
</defs>
</svg>
