<svg width="40" height="40" viewBox="0 0 40 40" fill="none" xmlns="http://www.w3.org/2000/svg">
<g clip-path="url(#clip0_66_744)">
<g filter="url(#filter0_d_66_744)">
<path d="M39.7558 7.6139L37.3909 5.24492C37.2346 5.08789 37.0231 5 36.8017 5C36.5803 5 36.3687 5.08789 36.2124 5.24414L31.1929 10.2686C30.8251 10.6364 30.0861 10.6356 29.7183 10.2694C28.6246 9.17155 27.0637 8.54249 25.4361 8.54249C25.4361 8.54249 25.4361 8.54249 25.4344 8.54249C23.8815 8.54249 22.3999 9.13038 21.3159 10.1376L20.5891 9.41085C20.2636 9.0853 19.7362 9.0853 19.4108 9.41085L18.6588 10.162C17.3844 9.0764 15.3352 9.15124 14.1438 10.3451L3.67837 20.8097C3.04845 21.4397 2.70181 22.2762 2.70181 23.1665C2.70181 23.9673 2.98173 24.7242 3.49611 25.3255L2.74415 26.0775C2.41861 26.403 2.41861 26.9303 2.74415 27.2558L3.46845 27.9801L0.24416 31.2085C-0.0813866 31.534 -0.0813866 32.0614 0.24416 32.386L2.60908 34.755C2.76533 34.912 2.97689 34.9999 3.19829 34.9999C3.4197 34.9999 3.63126 34.9121 3.78751 34.7558L7.01383 31.5254L7.74422 32.2558C7.90696 32.4185 8.12024 32.4999 8.33344 32.4999C8.54664 32.4999 8.75985 32.4185 8.92266 32.2558L9.67461 31.5046C10.9474 32.5894 12.9966 32.5129 14.1896 31.3215L24.655 20.8568C25.285 20.2269 25.6316 19.3904 25.6316 18.5001C25.6316 17.6993 25.3517 16.9424 24.8373 16.3411L25.5893 15.5891C25.9148 15.2636 25.9148 14.7362 25.5893 14.4108L24.879 13.7005C25.2769 13.4543 25.839 13.4792 26.1736 13.8151C27.2674 14.9129 28.8282 15.5428 30.4559 15.5428C32.0835 15.5428 33.6444 14.9129 34.7365 13.8159L39.756 8.79148C40.0813 8.46601 40.0813 7.93867 39.7558 7.6139ZM3.19829 32.9874L2.01173 31.7976L4.64681 29.1585L5.8354 30.3471L3.19829 32.9874ZM23.4765 19.6785L13.0111 30.1432C12.3844 30.7722 11.2842 30.7722 10.6543 30.1432L10.2555 29.7444C10.0928 29.5817 9.87953 29.5003 9.66633 29.5003C9.45312 29.5003 9.23992 29.5817 9.07711 29.7444L8.33328 30.4882L4.51173 26.6666L5.25556 25.9228C5.5811 25.5972 5.5811 25.0707 5.25556 24.7452L4.85681 24.3448C4.54267 24.0299 4.36853 23.6116 4.36853 23.1664C4.36853 22.7213 4.54267 22.303 4.85681 21.9881L15.3223 11.5234C15.9505 10.8944 17.0508 10.8944 17.679 11.5234L18.0778 11.9222C18.4033 12.2477 18.9307 12.2477 19.2562 11.9222L20 11.1783L23.8216 15L23.0778 15.7438C22.7522 16.0694 22.7522 16.5958 23.0778 16.9214L23.4765 17.3218C23.7907 17.6367 23.9648 18.055 23.9648 18.5001C23.9648 18.9453 23.7907 19.3636 23.4765 19.6785ZM33.5563 12.6383C31.9905 14.2122 28.9225 14.213 27.3535 12.6376C26.3656 11.6489 24.735 11.6144 23.684 12.5057L22.4952 11.3169C23.269 10.6183 24.3211 10.2092 25.4362 10.2092C26.6243 10.2092 27.7556 10.6601 28.54 11.447C29.5264 12.435 31.3851 12.435 32.3714 11.447L36.8017 7.01265L37.9883 8.20242L33.5563 12.6383Z" fill="#FD7900"/>
</g>
</g>
<defs>
<filter id="filter0_d_66_744" x="-15" y="-10" width="70" height="60" filterUnits="userSpaceOnUse" color-interpolation-filters="sRGB">
<feFlood flood-opacity="0" result="BackgroundImageFix"/>
<feColorMatrix in="SourceAlpha" type="matrix" values="0 0 0 0 0 0 0 0 0 0 0 0 0 0 0 0 0 0 127 0" result="hardAlpha"/>
<feOffset/>
<feGaussianBlur stdDeviation="7.5"/>
<feComposite in2="hardAlpha" operator="out"/>
<feColorMatrix type="matrix" values="0 0 0 0 0 0 0 0 0 0 0 0 0 0 0 0 0 0 0.15 0"/>
<feBlend mode="normal" in2="BackgroundImageFix" result="effect1_dropShadow_66_744"/>
<feBlend mode="normal" in="SourceGraphic" in2="effect1_dropShadow_66_744" result="shape"/>
</filter>
<clipPath id="clip0_66_744">
<rect width="40" height="40" fill="white"/>
</clipPath>
</defs>
</svg>
