<svg width="40" height="40" viewBox="0 0 40 40" fill="none" xmlns="http://www.w3.org/2000/svg">
<g clip-path="url(#clip0_66_752)">
<g filter="url(#filter0_d_66_752)">
<path d="M32.6093 16.2637C33.3927 15.5689 34.2805 14.7814 34.2805 13.6783C34.2805 12.5752 33.3927 11.7876 32.6093 11.0928C32.166 10.6996 31.6635 10.254 31.5562 9.92329C31.4384 9.56077 31.5856 8.88095 31.7156 8.28112C31.9326 7.27867 32.1787 6.14226 31.5532 5.28294C30.922 4.41573 29.7584 4.29948 28.7318 4.19698C28.1262 4.13651 27.4401 4.06804 27.1403 3.84982C26.8481 3.63726 26.5749 3.01194 26.334 2.46021C25.9178 1.50789 25.4464 0.42854 24.4136 0.0933231C24.2229 0.0314632 24.0204 0 23.8117 0C23.0229 0 22.2717 0.437819 21.5453 0.861346C21.0068 1.17512 20.3966 1.53082 20.0001 1.53082C19.6032 1.53082 18.9931 1.17512 18.4546 0.861346C17.7282 0.437819 16.977 0 16.1881 0C15.9792 0 15.7767 0.0314632 15.5862 0.0933231C14.5535 0.428646 14.0821 1.508 13.6662 2.4601C13.4251 3.01183 13.1519 3.63715 12.8598 3.84971C12.5598 4.06793 11.8737 4.1364 11.2683 4.19687C10.2416 4.29937 9.07796 4.41562 8.44699 5.28284C7.82145 6.14226 8.0674 7.27856 8.28476 8.28101C8.41456 8.88084 8.56185 9.56066 8.44411 9.92318C8.3366 10.2538 7.83436 10.6994 7.3911 11.0925C6.60761 11.7875 5.7196 12.5751 5.7196 13.6782C5.7196 14.7814 6.60761 15.5691 7.3911 16.2638C7.83436 16.657 8.33681 17.1025 8.44411 17.4329C8.56185 17.7956 8.41456 18.4755 8.28476 19.0754C8.06751 20.0778 7.82145 21.2142 8.44688 22.0735C9.07742 22.9398 10.2392 23.0567 11.2649 23.1591L7.10975 36.5494C7.01685 36.8484 7.10708 37.1741 7.34055 37.3828C7.57391 37.5915 7.90774 37.6447 8.19464 37.5191L12.4944 35.636L14.9731 39.6224C15.1202 39.8592 15.3783 40 15.6522 40C15.6859 40 15.7201 39.998 15.7542 39.9935C16.0648 39.9537 16.3236 39.7362 16.4163 39.4372L20.0001 27.8887L23.5837 39.4372C23.6766 39.7362 23.9353 39.9537 24.2459 39.9935C24.28 39.998 24.3141 40 24.348 40C24.6219 40 24.8798 39.8591 25.027 39.6224L27.5055 35.636L31.8054 37.5191C32.0919 37.6447 32.4259 37.5917 32.6593 37.3828C32.8927 37.1741 32.983 36.8483 32.8903 36.5494L28.7351 23.1594C29.761 23.0569 30.9226 22.94 31.5532 22.0737C32.1787 21.2143 31.9327 20.078 31.7156 19.0755C31.5856 18.4756 31.4383 17.7957 31.5562 17.4331C31.6635 17.1023 32.166 16.6568 32.6093 16.2637ZM15.4072 37.291L13.4874 34.2031C13.2774 33.8653 12.8512 33.7333 12.4871 33.8927L9.15656 35.3513L12.8366 23.4919C12.8441 23.4971 12.8524 23.5018 12.8597 23.507C13.1518 23.7195 13.4251 24.3448 13.666 24.8965C14.082 25.8487 14.5536 26.928 15.5863 27.2632C15.7769 27.3251 15.9796 27.3565 16.1883 27.3565C16.9771 27.3565 17.7283 26.9186 18.4547 26.4953C18.5749 26.4253 18.6987 26.3533 18.823 26.2834L15.4072 37.291ZM27.5127 33.8926C27.1488 33.7333 26.7226 33.8655 26.5126 34.203L24.5926 37.2909L21.177 26.2831C21.3012 26.3529 21.4251 26.425 21.5453 26.495C22.2717 26.9186 23.0229 27.3563 23.8117 27.3563C24.0206 27.3563 24.2231 27.3249 24.4138 27.263C25.4464 26.9277 25.918 25.8484 26.334 24.8963C26.575 24.3445 26.8483 23.7193 27.1403 23.5068C27.1473 23.5015 27.1558 23.4968 27.1634 23.4918L30.8435 35.3511L27.5127 33.8926ZM30.0345 16.9389C29.7834 17.7122 29.9707 18.5773 30.1518 19.4139C30.2908 20.0548 30.4635 20.8523 30.2598 21.1323C30.0502 21.4202 29.231 21.502 28.5729 21.5677C27.7257 21.6522 26.8496 21.7396 26.199 22.2133C25.5559 22.6811 25.2061 23.4817 24.868 24.2557C24.6007 24.8671 24.2683 25.6282 23.9195 25.7415C23.8883 25.7516 23.8531 25.7565 23.8116 25.7565C23.4549 25.7565 22.8683 25.4146 22.3507 25.113C21.6025 24.6769 20.8288 24.2259 20 24.2259C19.1709 24.2259 18.3973 24.677 17.649 25.113C17.1315 25.4146 16.5449 25.7565 16.1883 25.7565C16.1468 25.7565 16.1116 25.7516 16.0804 25.7414C15.7316 25.6282 15.3992 24.8673 15.1319 24.2557C14.7938 23.4816 14.4441 22.681 13.801 22.2133C13.1502 21.7396 12.2741 21.6521 11.4266 21.5676C10.7685 21.5019 9.94965 21.4201 9.74007 21.1323C9.53636 20.8523 9.70904 20.0549 9.84779 19.4141C10.029 18.5775 10.2165 17.7124 9.96533 16.9388C9.72365 16.1944 9.07732 15.6212 8.45232 15.067C7.92107 14.5958 7.31911 14.0619 7.31911 13.6783C7.31911 13.2947 7.92107 12.7606 8.45232 12.2895C9.07721 11.7353 9.72365 11.162 9.96554 10.4173C10.2165 9.64396 10.0291 8.77899 9.84801 7.94239C9.70904 7.3015 9.53636 6.50414 9.74007 6.22417C9.94965 5.93631 10.7688 5.85451 11.4269 5.78881C12.2741 5.70423 13.15 5.61688 13.8009 5.14333C14.4439 4.67522 14.7937 3.87467 15.1318 3.10057C15.3991 2.48911 15.7315 1.72813 16.0801 1.61486C16.1113 1.60484 16.1467 1.59983 16.1881 1.59983C16.5448 1.59983 17.1314 1.94187 17.649 2.24349C18.3973 2.67971 19.1709 3.13064 20 3.13064C20.8288 3.13064 21.6025 2.6796 22.3507 2.24349C22.8685 1.94187 23.4551 1.59983 23.8117 1.59983C23.8532 1.59983 23.8884 1.60484 23.9194 1.61497C24.2682 1.72813 24.6006 2.48911 24.8679 3.10078C25.2062 3.87499 25.5559 4.67554 26.199 5.14344C26.8496 5.61688 27.7256 5.70434 28.5729 5.78891C29.231 5.85461 30.0503 5.93642 30.2598 6.22428C30.4635 6.50425 30.2908 7.30182 30.1518 7.94249C29.9708 8.77909 29.7835 9.64417 30.0345 10.4173C30.2762 11.162 30.9225 11.7353 31.5477 12.2898C32.0788 12.7607 32.6807 13.2948 32.6807 13.6784C32.6807 14.062 32.0786 14.596 31.5477 15.0669C30.9226 15.6211 30.2762 16.1944 30.0345 16.9389Z" fill="#FD7900"/>
<path d="M19.9999 4.6123C15.0009 4.6123 10.9338 8.67938 10.9338 13.6784C10.9338 18.6774 15.0009 22.7445 19.9999 22.7445C24.999 22.7445 29.066 18.6774 29.066 13.6784C29.066 8.67938 24.9991 4.6123 19.9999 4.6123ZM19.9999 21.1447C15.8828 21.1447 12.5337 17.7954 12.5337 13.6784C12.5337 9.56142 15.8828 6.21213 19.9999 6.21213C24.1168 6.21213 27.4662 9.56142 27.4662 13.6784C27.4662 17.7954 24.1168 21.1447 19.9999 21.1447Z" fill="#FD7900"/>
</g>
<g filter="url(#filter1_d_66_752)">
<path d="M32.6093 16.2637C33.3927 15.5689 34.2805 14.7814 34.2805 13.6783C34.2805 12.5752 33.3927 11.7876 32.6093 11.0928C32.166 10.6996 31.6635 10.254 31.5562 9.92329C31.4384 9.56077 31.5856 8.88095 31.7156 8.28112C31.9326 7.27867 32.1787 6.14226 31.5532 5.28294C30.922 4.41573 29.7584 4.29948 28.7318 4.19698C28.1262 4.13651 27.4401 4.06804 27.1403 3.84982C26.8481 3.63726 26.5749 3.01194 26.334 2.46021C25.9178 1.50789 25.4464 0.42854 24.4136 0.0933231C24.2229 0.0314632 24.0204 0 23.8117 0C23.0229 0 22.2717 0.437819 21.5453 0.861346C21.0068 1.17512 20.3966 1.53082 20.0001 1.53082C19.6032 1.53082 18.9931 1.17512 18.4546 0.861346C17.7282 0.437819 16.977 0 16.1881 0C15.9792 0 15.7767 0.0314632 15.5862 0.0933231C14.5535 0.428646 14.0821 1.508 13.6661 2.4601C13.4251 3.01183 13.1519 3.63715 12.8598 3.84971C12.5598 4.06793 11.8737 4.1364 11.2683 4.19687C10.2416 4.29937 9.07796 4.41562 8.44699 5.28284C7.82145 6.14226 8.0674 7.27856 8.28476 8.28101C8.41456 8.88084 8.56185 9.56066 8.44411 9.92318C8.3366 10.2538 7.83436 10.6994 7.3911 11.0925C6.60761 11.7875 5.7196 12.5751 5.7196 13.6782C5.7196 14.7814 6.60761 15.5691 7.3911 16.2638C7.83436 16.657 8.33681 17.1025 8.44411 17.4329C8.56185 17.7956 8.41456 18.4755 8.28476 19.0754C8.06751 20.0778 7.82145 21.2142 8.44688 22.0735C9.07742 22.9398 10.2392 23.0567 11.2649 23.1591L7.10975 36.5494C7.01685 36.8484 7.10708 37.1741 7.34055 37.3828C7.57391 37.5915 7.90774 37.6447 8.19464 37.5191L12.4944 35.636L14.9731 39.6224C15.1202 39.8592 15.3783 40 15.6522 40C15.6859 40 15.7201 39.998 15.7542 39.9935C16.0648 39.9537 16.3236 39.7362 16.4162 39.4372L20.0001 27.8887L23.5837 39.4372C23.6766 39.7362 23.9353 39.9537 24.2459 39.9935C24.28 39.998 24.3141 40 24.348 40C24.6219 40 24.8798 39.8591 25.027 39.6224L27.5055 35.636L31.8054 37.5191C32.0919 37.6447 32.4259 37.5917 32.6593 37.3828C32.8927 37.1741 32.983 36.8483 32.8903 36.5494L28.7351 23.1594C29.761 23.0569 30.9226 22.94 31.5532 22.0737C32.1787 21.2143 31.9327 20.078 31.7156 19.0755C31.5856 18.4756 31.4383 17.7957 31.5562 17.4331C31.6635 17.1023 32.166 16.6568 32.6093 16.2637ZM15.4072 37.291L13.4874 34.2031C13.2774 33.8653 12.8512 33.7333 12.4871 33.8927L9.15656 35.3513L12.8366 23.4919C12.8441 23.4971 12.8524 23.5018 12.8597 23.507C13.1518 23.7195 13.4251 24.3448 13.666 24.8965C14.082 25.8487 14.5536 26.928 15.5863 27.2632C15.7769 27.3251 15.9796 27.3565 16.1883 27.3565C16.9771 27.3565 17.7283 26.9186 18.4547 26.4953C18.5749 26.4253 18.6987 26.3533 18.823 26.2834L15.4072 37.291ZM27.5127 33.8926C27.1488 33.7333 26.7226 33.8655 26.5126 34.203L24.5926 37.2909L21.177 26.2831C21.3012 26.3529 21.4251 26.425 21.5453 26.495C22.2717 26.9186 23.0229 27.3563 23.8117 27.3563C24.0206 27.3563 24.2231 27.3249 24.4138 27.263C25.4464 26.9277 25.918 25.8484 26.334 24.8963C26.575 24.3445 26.8483 23.7193 27.1403 23.5068C27.1473 23.5015 27.1558 23.4968 27.1634 23.4918L30.8435 35.3511L27.5127 33.8926ZM30.0345 16.9389C29.7834 17.7122 29.9707 18.5773 30.1518 19.4139C30.2908 20.0548 30.4635 20.8523 30.2597 21.1323C30.0502 21.4202 29.231 21.502 28.5729 21.5677C27.7257 21.6522 26.8496 21.7396 26.199 22.2133C25.5559 22.6811 25.2061 23.4817 24.868 24.2557C24.6007 24.8671 24.2683 25.6282 23.9195 25.7415C23.8883 25.7516 23.8531 25.7565 23.8116 25.7565C23.4549 25.7565 22.8683 25.4146 22.3507 25.113C21.6025 24.6769 20.8288 24.2259 20 24.2259C19.1709 24.2259 18.3973 24.677 17.649 25.113C17.1315 25.4146 16.5449 25.7565 16.1883 25.7565C16.1468 25.7565 16.1116 25.7516 16.0804 25.7414C15.7316 25.6282 15.3992 24.8673 15.1319 24.2557C14.7938 23.4816 14.4441 22.681 13.801 22.2133C13.1502 21.7396 12.2741 21.6521 11.4266 21.5676C10.7685 21.5019 9.94965 21.4201 9.74007 21.1323C9.53636 20.8523 9.70904 20.0549 9.84779 19.4141C10.029 18.5775 10.2165 17.7124 9.96533 16.9388C9.72365 16.1944 9.07732 15.6212 8.45232 15.067C7.92107 14.5958 7.31911 14.0619 7.31911 13.6783C7.31911 13.2947 7.92107 12.7606 8.45232 12.2895C9.07721 11.7353 9.72365 11.162 9.96554 10.4173C10.2165 9.64396 10.0291 8.77899 9.84801 7.94239C9.70904 7.3015 9.53636 6.50414 9.74007 6.22417C9.94965 5.93631 10.7688 5.85451 11.4269 5.78881C12.2741 5.70423 13.15 5.61688 13.8009 5.14333C14.4439 4.67522 14.7937 3.87467 15.1318 3.10057C15.3991 2.48911 15.7315 1.72813 16.0801 1.61486C16.1113 1.60484 16.1467 1.59983 16.1881 1.59983C16.5448 1.59983 17.1314 1.94187 17.649 2.24349C18.3973 2.67971 19.1709 3.13064 20 3.13064C20.8288 3.13064 21.6025 2.6796 22.3507 2.24349C22.8685 1.94187 23.4551 1.59983 23.8117 1.59983C23.8532 1.59983 23.8884 1.60484 23.9194 1.61497C24.2682 1.72813 24.6006 2.48911 24.8679 3.10078C25.2062 3.87499 25.5559 4.67554 26.199 5.14344C26.8496 5.61688 27.7256 5.70434 28.5729 5.78891C29.231 5.85461 30.0503 5.93642 30.2597 6.22428C30.4635 6.50425 30.2908 7.30182 30.1518 7.94249C29.9708 8.77909 29.7835 9.64417 30.0345 10.4173C30.2762 11.162 30.9225 11.7353 31.5477 12.2898C32.0787 12.7607 32.6807 13.2948 32.6807 13.6784C32.6807 14.062 32.0786 14.596 31.5477 15.0669C30.9226 15.6211 30.2762 16.1944 30.0345 16.9389Z" fill="#FD7900"/>
<path d="M19.9999 4.6123C15.0009 4.6123 10.9338 8.67938 10.9338 13.6784C10.9338 18.6774 15.0009 22.7445 19.9999 22.7445C24.999 22.7445 29.066 18.6774 29.066 13.6784C29.066 8.67938 24.9991 4.6123 19.9999 4.6123ZM19.9999 21.1447C15.8828 21.1447 12.5337 17.7954 12.5337 13.6784C12.5337 9.56142 15.8828 6.21213 19.9999 6.21213C24.1168 6.21213 27.4662 9.56142 27.4662 13.6784C27.4662 17.7954 24.1168 21.1447 19.9999 21.1447Z" fill="#FD7900"/>
<path fill-rule="evenodd" clip-rule="evenodd" d="M19.9999 4.8123C15.1114 4.8123 11.1338 8.78984 11.1338 13.6784C11.1338 18.567 15.1114 22.5445 19.9999 22.5445C24.8885 22.5445 28.866 18.567 28.866 13.6784C28.866 8.78984 24.8886 4.8123 19.9999 4.8123ZM19.9999 21.3447C15.7724 21.3447 12.3337 17.9059 12.3337 13.6784C12.3337 9.45096 15.7724 6.01213 19.9999 6.01213C24.2273 6.01213 27.6662 9.45096 27.6662 13.6784C27.6662 17.9059 24.2273 21.3447 19.9999 21.3447ZM10.9338 13.6784C10.9338 8.67938 15.0009 4.6123 19.9999 4.6123C24.9991 4.6123 29.066 8.67938 29.066 13.6784C29.066 18.6774 24.999 22.7445 19.9999 22.7445C15.0009 22.7445 10.9338 18.6774 10.9338 13.6784ZM12.5337 13.6784C12.5337 17.7954 15.8828 21.1447 19.9999 21.1447C24.1168 21.1447 27.4662 17.7954 27.4662 13.6784C27.4662 9.56142 24.1168 6.21213 19.9999 6.21213C15.8828 6.21213 12.5337 9.56142 12.5337 13.6784Z" fill="#FD7900"/>
</g>
</g>
<defs>
<filter id="filter0_d_66_752" x="-9.2804" y="-15" width="58.5609" height="70" filterUnits="userSpaceOnUse" color-interpolation-filters="sRGB">
<feFlood flood-opacity="0" result="BackgroundImageFix"/>
<feColorMatrix in="SourceAlpha" type="matrix" values="0 0 0 0 0 0 0 0 0 0 0 0 0 0 0 0 0 0 127 0" result="hardAlpha"/>
<feOffset/>
<feGaussianBlur stdDeviation="7.5"/>
<feComposite in2="hardAlpha" operator="out"/>
<feColorMatrix type="matrix" values="0 0 0 0 0 0 0 0 0 0 0 0 0 0 0 0 0 0 0.15 0"/>
<feBlend mode="normal" in2="BackgroundImageFix" result="effect1_dropShadow_66_752"/>
<feBlend mode="normal" in="SourceGraphic" in2="effect1_dropShadow_66_752" result="shape"/>
</filter>
<filter id="filter1_d_66_752" x="-9.2804" y="-15" width="58.5609" height="70" filterUnits="userSpaceOnUse" color-interpolation-filters="sRGB">
<feFlood flood-opacity="0" result="BackgroundImageFix"/>
<feColorMatrix in="SourceAlpha" type="matrix" values="0 0 0 0 0 0 0 0 0 0 0 0 0 0 0 0 0 0 127 0" result="hardAlpha"/>
<feOffset/>
<feGaussianBlur stdDeviation="7.5"/>
<feComposite in2="hardAlpha" operator="out"/>
<feColorMatrix type="matrix" values="0 0 0 0 0 0 0 0 0 0 0 0 0 0 0 0 0 0 0.15 0"/>
<feBlend mode="normal" in2="BackgroundImageFix" result="effect1_dropShadow_66_752"/>
<feBlend mode="normal" in="SourceGraphic" in2="effect1_dropShadow_66_752" result="shape"/>
</filter>
<clipPath id="clip0_66_752">
<rect width="40" height="40" fill="white"/>
</clipPath>
</defs>
</svg>
