<svg width="40" height="40" viewBox="0 0 40 40" fill="none" xmlns="http://www.w3.org/2000/svg">
<g clip-path="url(#clip0_66_728)">
<path d="M20 29.5236C18.1164 29.5236 16.2751 28.9651 14.709 27.9186C13.1428 26.8722 11.9222 25.3848 11.2014 23.6446C10.4806 21.9044 10.292 19.9895 10.6594 18.1421C11.0269 16.2948 11.9339 14.5978 13.2658 13.2659C14.5977 11.9341 16.2946 11.027 18.142 10.6596C19.9894 10.2921 21.9043 10.4807 23.6445 11.2015C25.3847 11.9223 26.872 13.143 27.9185 14.7091C28.965 16.2752 29.5235 18.1165 29.5235 20.0001C29.5219 22.5254 28.5181 24.9469 26.7324 26.7325C24.9467 28.5182 22.5253 29.5221 20 29.5236ZM20 11.653C18.3491 11.653 16.7353 12.1426 15.3626 13.0598C13.9899 13.977 12.9201 15.2806 12.2883 16.8058C11.6565 18.331 11.4912 20.0094 11.8133 21.6285C12.1354 23.2477 12.9304 24.735 14.0977 25.9024C15.2651 27.0697 16.7524 27.8647 18.3715 28.1868C19.9907 28.5088 21.669 28.3435 23.1943 27.7118C24.7195 27.08 26.0231 26.0101 26.9403 24.6375C27.8575 23.2648 28.347 21.651 28.347 20.0001C28.3439 17.7873 27.4635 15.666 25.8988 14.1013C24.3341 12.5366 22.2128 11.6561 20 11.653Z" fill="#FD7900"/>
<path d="M29.1411 4.1176C29.0418 4.11791 28.9443 4.0915 28.8588 4.04113C26.1468 2.54202 23.0987 1.75565 19.9999 1.75565C16.9012 1.75565 13.8531 2.54202 11.1411 4.04113C11.0053 4.11733 10.8449 4.1366 10.6949 4.09469C10.545 4.05279 10.4177 3.95315 10.3411 3.8176C10.2723 3.6807 10.2596 3.52235 10.3057 3.37624C10.3519 3.23013 10.4532 3.10779 10.5882 3.03524C13.4699 1.444 16.7081 0.609375 19.9999 0.609375C23.2918 0.609375 26.53 1.444 29.4117 3.03524C29.4793 3.07268 29.5389 3.12308 29.587 3.18356C29.6352 3.24404 29.6709 3.31341 29.6922 3.3877C29.7135 3.462 29.72 3.53976 29.7112 3.61655C29.7024 3.69335 29.6786 3.76766 29.6411 3.83524C29.5889 3.92111 29.5154 3.99214 29.4279 4.04157C29.3404 4.091 29.2416 4.11718 29.1411 4.1176Z" fill="#FD7900"/>
<path d="M20 39.4118C16.7066 39.4141 13.4671 38.5759 10.5882 36.9765C10.5206 36.9391 10.461 36.8887 10.4129 36.8282C10.3647 36.7677 10.329 36.6984 10.3077 36.6241C10.2864 36.5498 10.2799 36.472 10.2887 36.3952C10.2975 36.3184 10.3213 36.2441 10.3588 36.1765C10.4354 36.041 10.5626 35.9413 10.7126 35.8994C10.8625 35.8575 11.023 35.8768 11.1588 35.953C13.8708 37.4521 16.9189 38.2385 20.0176 38.2385C23.1164 38.2385 26.1644 37.4521 28.8764 35.953C28.9436 35.9144 29.0178 35.8894 29.0947 35.8794C29.1715 35.8694 29.2496 35.8747 29.3244 35.8949C29.3993 35.9151 29.4694 35.9499 29.5308 35.9972C29.5922 36.0445 29.6437 36.1034 29.6823 36.1707C29.7209 36.2379 29.7459 36.312 29.7559 36.3889C29.7659 36.4658 29.7606 36.5438 29.7404 36.6187C29.7202 36.6935 29.6854 36.7636 29.6381 36.825C29.5908 36.8864 29.5319 36.9379 29.4647 36.9765C26.5701 38.5846 23.3112 39.4231 20 39.4118Z" fill="#FD7900"/>
<path d="M3.52945 29.7294C3.42546 29.7254 3.32438 29.6939 3.23655 29.6381C3.14871 29.5823 3.07724 29.5042 3.02945 29.4117C1.44123 26.5288 0.608836 23.2907 0.609864 19.9992C0.610893 16.7077 1.44531 13.4701 3.03533 10.5882C3.07277 10.5206 3.12317 10.461 3.18365 10.4129C3.24412 10.3647 3.31349 10.329 3.38779 10.3077C3.46208 10.2864 3.53985 10.2799 3.61664 10.2887C3.69343 10.2975 3.76775 10.3213 3.83533 10.3588C3.97088 10.4354 4.07053 10.5626 4.11243 10.7126C4.15433 10.8625 4.13507 11.023 4.05886 11.1588C2.56293 13.8708 1.77836 16.9175 1.77836 20.0147C1.77836 23.1119 2.56293 26.1586 4.05886 28.8706C4.1056 28.9608 4.12818 29.0615 4.12441 29.163C4.12063 29.2646 4.09063 29.3634 4.03732 29.4499C3.98401 29.5363 3.90921 29.6075 3.82021 29.6565C3.7312 29.7055 3.63103 29.7306 3.52945 29.7294Z" fill="#FD7900"/>
<path d="M36.4706 29.7295C36.3703 29.7292 36.2715 29.705 36.1824 29.6589C36.0468 29.5822 35.9472 29.455 35.9053 29.3051C35.8634 29.1551 35.8827 28.9946 35.9589 28.8589C37.458 26.1469 38.2443 23.0988 38.2443 20C38.2443 16.9013 37.458 13.8532 35.9589 11.1412C35.8809 11.0055 35.86 10.8443 35.9008 10.6932C35.9416 10.5421 36.0408 10.4133 36.1765 10.3353C36.3122 10.2573 36.4734 10.2364 36.6245 10.2773C36.7757 10.3181 36.9044 10.4173 36.9824 10.553C38.5799 13.439 39.418 16.6837 39.418 19.9824C39.418 23.2811 38.5799 26.5257 36.9824 29.4118C36.9336 29.506 36.8603 29.5852 36.7703 29.6411C36.6802 29.697 36.5766 29.7275 36.4706 29.7295Z" fill="#FD7900"/>
<path d="M20 21.5882C19.4597 21.5882 18.9315 21.4278 18.4824 21.1274C18.0333 20.827 17.6835 20.4 17.4773 19.9006C17.271 19.4012 17.2177 18.8518 17.3239 18.322C17.4302 17.7922 17.6913 17.3059 18.0742 16.9247C18.4571 16.5434 18.9446 16.2844 19.4748 16.1804C20.005 16.0764 20.5542 16.1322 21.0527 16.3406C21.5512 16.5489 21.9767 16.9006 22.2752 17.351C22.5737 17.8014 22.7318 18.3303 22.7294 18.8706C22.7287 19.2282 22.6574 19.5822 22.5199 19.9124C22.3823 20.2425 22.181 20.5423 21.9276 20.7947C21.6741 21.047 21.3734 21.247 21.0427 21.3832C20.712 21.5193 20.3577 21.589 20 21.5882ZM20 17.3117C19.6931 17.3118 19.3931 17.4027 19.1379 17.5731C18.8826 17.7434 18.6836 17.9856 18.5659 18.2691C18.4481 18.5525 18.4171 18.8644 18.4765 19.1655C18.5359 19.4666 18.6833 19.7433 18.8999 19.9607C19.1165 20.1781 19.3926 20.3265 19.6935 20.3871C19.9943 20.4477 20.3064 20.4177 20.5902 20.3011C20.8741 20.1845 21.117 19.9863 21.2884 19.7317C21.4597 19.4771 21.5518 19.1775 21.553 18.8706C21.5537 18.6661 21.5141 18.4636 21.4364 18.2745C21.3587 18.0854 21.2445 17.9135 21.1002 17.7687C20.9559 17.6238 20.7845 17.5089 20.5957 17.4305C20.4069 17.3521 20.2044 17.3117 20 17.3117Z" fill="#FD7900"/>
<path d="M24.7352 27.9295C24.5792 27.9295 24.4296 27.8675 24.3193 27.7572C24.209 27.6469 24.147 27.4972 24.147 27.3412C24.151 26.5585 23.9317 25.7908 23.515 25.1282C23.0983 24.4656 22.5013 23.9355 21.7941 23.6C20.6456 24.0237 19.3837 24.0237 18.2352 23.6C17.528 23.9355 16.931 24.4656 16.5143 25.1282C16.0976 25.7908 15.8783 26.5585 15.8823 27.3412C15.8823 27.4972 15.8203 27.6469 15.71 27.7572C15.5997 27.8675 15.4501 27.9295 15.2941 27.9295C15.1381 27.9295 14.9884 27.8675 14.8781 27.7572C14.7678 27.6469 14.7058 27.4972 14.7058 27.3412C14.7027 26.2813 15.0178 25.2448 15.6103 24.366C16.2029 23.4871 17.0456 22.8063 18.0294 22.4118C18.1019 22.3811 18.18 22.3652 18.2588 22.3652C18.3376 22.3652 18.4156 22.3811 18.4882 22.4118C18.9781 22.6214 19.5054 22.7294 20.0382 22.7294C20.571 22.7294 21.0983 22.6214 21.5882 22.4118C21.6608 22.3811 21.7388 22.3652 21.8176 22.3652C21.8964 22.3652 21.9744 22.3811 22.047 22.4118C23.0286 22.8082 23.8688 23.4897 24.4592 24.3684C25.0495 25.2471 25.3629 26.2826 25.3588 27.3412C25.3589 27.4215 25.3426 27.501 25.3109 27.5748C25.2791 27.6486 25.2326 27.7151 25.1742 27.7702C25.1158 27.8253 25.0467 27.8678 24.9712 27.8952C24.8957 27.9226 24.8154 27.9343 24.7352 27.9295Z" fill="#FD7900"/>
<path d="M33.3059 35.8413C32.721 35.8401 32.1545 35.6362 31.703 35.2643C31.2515 34.8924 30.9429 34.3755 30.8296 33.8016C30.7163 33.2277 30.8055 32.6323 31.0819 32.1168C31.3582 31.6013 31.8048 31.1974 32.3454 30.9741C32.886 30.7508 33.4873 30.7217 34.047 30.8919C34.6066 31.062 35.09 31.4209 35.4148 31.9074C35.7396 32.3939 35.8858 32.9779 35.8284 33.56C35.771 34.1422 35.5136 34.6864 35.1001 35.1001C34.8647 35.336 34.585 35.5229 34.2771 35.6501C33.9692 35.7773 33.6391 35.8423 33.3059 35.8413ZM33.3295 31.9825C33.1501 31.9748 32.971 32.0037 32.8031 32.0674C32.6353 32.1311 32.4821 32.2283 32.353 32.3531C32.1295 32.5747 31.9899 32.8671 31.9581 33.1803C31.9262 33.4935 32.0041 33.808 32.1784 34.0701C32.3527 34.3322 32.6126 34.5257 32.9137 34.6175C33.2148 34.7093 33.5384 34.6937 33.8293 34.5734C34.1201 34.4531 34.3602 34.2356 34.5085 33.9579C34.6568 33.6802 34.7041 33.3597 34.6423 33.0511C34.5806 32.7424 34.4135 32.4648 34.1698 32.2656C33.926 32.0664 33.6207 31.958 33.3059 31.9589L33.3295 31.9825Z" fill="#FD7900"/>
<path d="M33.3177 39.1235C31.9733 39.1198 30.6718 38.65 29.6349 37.7944C28.5979 36.9387 27.8897 35.7501 27.6309 34.4308C27.372 33.1116 27.5785 31.7435 28.2152 30.5594C28.8518 29.3753 29.8793 28.4486 31.1226 27.9371C32.3659 27.4256 33.748 27.3609 35.0336 27.7541C36.3192 28.1473 37.4287 28.974 38.1732 30.0934C38.9176 31.2129 39.251 32.5558 39.1165 33.8934C38.9819 35.231 38.3878 36.4806 37.4353 37.4294C36.8946 37.9693 36.2524 38.397 35.5457 38.6878C34.839 38.9785 34.0818 39.1266 33.3177 39.1235ZM33.3177 28.6706C32.2439 28.6708 31.2035 29.0434 30.3736 29.7247C29.5437 30.4061 28.9758 31.3541 28.7666 32.4073C28.5573 33.4604 28.7197 34.5536 29.2261 35.5004C29.7324 36.4473 30.5514 37.1893 31.5435 37.6C32.5356 38.0107 33.6394 38.0647 34.6669 37.7528C35.6943 37.4409 36.5818 36.7824 37.1782 35.8895C37.7746 34.9966 38.0429 33.9246 37.9375 32.856C37.8321 31.7875 37.3594 30.7885 36.6 30.0294C36.1679 29.5965 35.6543 29.2536 35.0889 29.0203C34.5235 28.7871 33.9175 28.6682 33.3059 28.6706H33.3177Z" fill="#FD7900"/>
<path d="M6.68828 9.22353C6.10054 9.22973 5.5289 9.03152 5.07114 8.66281C4.61339 8.2941 4.29797 7.7778 4.17884 7.20222C4.05971 6.62664 4.14427 6.02755 4.41806 5.50743C4.69185 4.98731 5.13785 4.57848 5.67977 4.35088C6.22169 4.12327 6.82586 4.09103 7.38893 4.25967C7.95199 4.42831 8.43897 4.78735 8.76655 5.27538C9.09414 5.76341 9.24198 6.3501 9.18478 6.93509C9.12758 7.52008 8.8689 8.06702 8.45299 8.48235C7.98491 8.95156 7.35102 9.21779 6.68828 9.22353ZM6.68828 5.33529C6.37386 5.33436 6.06885 5.44249 5.82523 5.64127C5.58161 5.84004 5.41447 6.11715 5.35228 6.42536C5.29009 6.73357 5.33672 7.05381 5.4842 7.33149C5.63169 7.60918 5.87091 7.82712 6.16109 7.94818C6.45127 8.06924 6.77446 8.08591 7.07556 7.99537C7.37666 7.90483 7.63705 7.71267 7.81233 7.45164C7.98762 7.19061 8.06696 6.87687 8.03683 6.5639C8.0067 6.25092 7.86897 5.95808 7.64711 5.73529C7.52153 5.60873 7.37217 5.50823 7.20762 5.43959C7.04307 5.37094 6.86658 5.3355 6.68828 5.33529Z" fill="#FD7900"/>
<path d="M6.69415 12.5058C5.34988 12.5035 4.048 12.0351 3.01025 11.1807C1.97249 10.3262 1.26304 9.13837 1.00272 7.81954C0.742403 6.50071 0.947314 5.13243 1.58256 3.94772C2.2178 2.76301 3.24409 1.83514 4.48663 1.32215C5.72917 0.809155 7.11112 0.742761 8.39712 1.13427C9.68312 1.52579 10.7936 2.35099 11.5395 3.46935C12.2854 4.58771 12.6205 5.93005 12.4879 7.26776C12.3552 8.60547 11.7629 9.85581 10.8118 10.8058C10.271 11.3461 9.62889 11.7743 8.92232 12.066C8.21575 12.3577 7.45857 12.5072 6.69415 12.5058ZM6.69415 2.04702C5.61995 2.05078 4.58023 2.42658 3.75186 3.11047C2.92349 3.79436 2.35763 4.74412 2.15054 5.79817C1.94345 6.85222 2.10792 7.94546 2.61598 8.89193C3.12403 9.83839 3.94429 10.5796 4.93721 10.9895C5.93014 11.3994 7.0344 11.4526 8.06216 11.1402C9.08991 10.8277 9.97768 10.1688 10.5744 9.27565C11.1712 8.38245 11.4401 7.3101 11.3353 6.24102C11.2306 5.17193 10.7588 4.17214 10 3.41173C9.56673 2.97514 9.05057 2.62953 8.48186 2.39518C7.91315 2.16082 7.30335 2.04246 6.68827 2.04702H6.69415Z" fill="#FD7900"/>
<path d="M6.68828 35.8412C6.10054 35.8474 5.5289 35.6492 5.07114 35.2805C4.61339 34.9118 4.29797 34.3955 4.17884 33.8199C4.05971 33.2443 4.14427 32.6452 4.41806 32.1251C4.69185 31.605 5.13785 31.1962 5.67977 30.9685C6.22169 30.7409 6.82586 30.7087 7.38893 30.8773C7.95199 31.046 8.43897 31.405 8.76655 31.8931C9.09414 32.3811 9.24198 32.9678 9.18478 33.5528C9.12758 34.1377 8.8689 34.6847 8.45299 35.1C7.98491 35.5692 7.35102 35.8355 6.68828 35.8412ZM6.68828 31.953C6.37386 31.952 6.06885 32.0602 5.82523 32.2589C5.58161 32.4577 5.41447 32.7348 5.35228 33.043C5.29009 33.3512 5.33672 33.6715 5.4842 33.9492C5.63169 34.2268 5.87091 34.4448 6.16109 34.5658C6.45127 34.6869 6.77446 34.7036 7.07556 34.613C7.37666 34.5225 7.63705 34.3303 7.81233 34.0693C7.98762 33.8083 8.06696 33.4945 8.03683 33.1816C8.0067 32.8686 7.86897 32.5758 7.64711 32.353C7.52153 32.2264 7.37217 32.1259 7.20762 32.0573C7.04307 31.9886 6.86658 31.9532 6.68828 31.953Z" fill="#FD7900"/>
<path d="M6.68818 39.1236C5.34233 39.1217 4.03875 38.6534 2.99952 37.7982C1.96029 36.943 1.24969 35.754 0.988789 34.4337C0.727888 33.1134 0.932825 31.7435 1.56868 30.5573C2.20454 29.3712 3.23199 28.4421 4.47598 27.9285C5.71998 27.415 7.10356 27.3486 8.39102 27.7407C9.67848 28.1328 10.7902 28.9591 11.5367 30.0789C12.2832 31.1988 12.6184 32.5428 12.4851 33.882C12.3519 35.2212 11.7584 36.4728 10.8058 37.4236C9.71282 38.5136 8.23179 39.125 6.68818 39.1236ZM6.68818 28.6706C5.61685 28.685 4.58358 29.0701 3.76412 29.7603C2.94467 30.4506 2.38963 31.4034 2.19344 32.4567C1.99724 33.51 2.17199 34.5988 2.68796 35.5378C3.20394 36.4768 4.02927 37.208 5.02358 37.6072C6.01788 38.0063 7.11976 38.0487 8.14177 37.727C9.16379 37.4054 10.0428 36.7397 10.6294 35.8431C11.2159 34.9464 11.4737 33.8743 11.359 32.809C11.2442 31.7438 10.764 30.7512 9.99994 30C9.56403 29.5711 9.04745 29.2327 8.48003 29.0045C7.9126 28.7764 7.30559 28.6629 6.69406 28.6706H6.68818Z" fill="#FD7900"/>
<path d="M33.3059 9.21766C32.6432 9.21193 32.0093 8.9457 31.5412 8.47649C31.1253 8.06116 30.8666 7.51422 30.8094 6.92923C30.7522 6.34424 30.9 5.75755 31.2276 5.26952C31.5552 4.78149 32.0422 4.42245 32.6053 4.25381C33.1683 4.08517 33.7725 4.11741 34.3144 4.34502C34.8563 4.57262 35.3023 4.98145 35.5761 5.50157C35.8499 6.02169 35.9345 6.62078 35.8153 7.19636C35.6962 7.77194 35.3808 8.28825 34.923 8.65696C34.4653 9.02566 33.8936 9.22387 33.3059 9.21766ZM32.353 7.64708C32.5424 7.83568 32.7835 7.96393 33.0458 8.01564C33.308 8.06735 33.5798 8.0402 33.8266 7.93762C34.0735 7.83505 34.2844 7.66163 34.4328 7.43927C34.5812 7.21692 34.6604 6.95558 34.6604 6.68825C34.6604 6.42093 34.5812 6.15959 34.4328 5.93723C34.2844 5.71487 34.0735 5.54146 33.8266 5.43888C33.5798 5.3363 33.308 5.30915 33.0458 5.36086C32.7835 5.41257 32.5424 5.54083 32.353 5.72943C32.226 5.85474 32.1251 6.00403 32.0563 6.16862C31.9875 6.33322 31.9521 6.50985 31.9521 6.68825C31.9521 6.86666 31.9875 7.04329 32.0563 7.20788C32.1251 7.37248 32.226 7.52177 32.353 7.64708Z" fill="#FD7900"/>
<path d="M33.3059 12.5059C32.5408 12.5085 31.7828 12.359 31.0759 12.0661C30.369 11.7733 29.7274 11.3429 29.1882 10.8001C28.644 10.2622 28.2132 9.62067 27.9212 8.91342C27.6292 8.20617 27.482 7.44755 27.4882 6.68242C27.4871 5.53129 27.8274 4.4057 28.4662 3.44809C29.105 2.49048 30.0136 1.74391 31.0768 1.30286C32.1401 0.861804 33.3103 0.7461 34.4394 0.970387C35.5685 1.19467 36.6056 1.74887 37.4196 2.56284C38.2335 3.37681 38.7877 4.41395 39.012 5.54301C39.2363 6.67207 39.1206 7.84229 38.6795 8.90557C38.2385 9.96885 37.4919 10.8774 36.5343 11.5162C35.5767 12.155 34.4511 12.4953 33.3 12.4942L33.3059 12.5059ZM33.3059 2.053C32.6959 2.05223 32.0917 2.17171 31.528 2.4046C30.9642 2.6375 30.4519 2.97924 30.0203 3.41029C29.5887 3.84134 29.2463 4.35324 29.0127 4.91672C28.7791 5.4802 28.6588 6.0842 28.6588 6.69418C28.6496 7.30695 28.7636 7.91531 28.994 8.48319C29.2244 9.05107 29.5665 9.56689 30 10.0001C30.5388 10.5407 31.2027 10.94 31.9327 11.1627C32.6628 11.3855 33.4365 11.4247 34.1853 11.277C34.9342 11.1293 35.635 10.7992 36.2258 10.3159C36.8166 9.83263 37.279 9.21111 37.5722 8.50639C37.8654 7.80168 37.9803 7.03554 37.9066 6.27583C37.833 5.51612 37.5731 4.7863 37.1501 4.15101C36.727 3.51573 36.1538 2.99459 35.4812 2.63377C34.8086 2.27294 34.0574 2.08357 33.2941 2.08242L33.3059 2.053Z" fill="#FD7900"/>
</g>
<defs>
<clipPath id="clip0_66_728">
<rect width="40" height="40" fill="white"/>
</clipPath>
</defs>
</svg>
