<svg width="40" height="36" viewBox="0 0 40 36" fill="none" xmlns="http://www.w3.org/2000/svg">
<path d="M36.7211 15.3802L36.6736 15.217C36.425 14.3615 36.0874 13.5478 35.6413 12.7746L35.5545 12.6241L35.6653 12.4902L37.0356 10.8358C37.2875 10.5304 37.2668 10.0957 36.989 9.8095C36.9888 9.80927 36.9886 9.80904 36.9883 9.80882L34.2892 7.07929L34.2878 7.07786C34.0142 6.79662 33.5627 6.77219 33.2559 7.02498L36.7211 15.3802ZM36.7211 15.3802L36.8903 15.3961M36.7211 15.3802L36.8903 15.3961M36.8903 15.3961L39.0518 15.599C39.0519 15.599 39.0521 15.5991 39.0523 15.5991C39.4457 15.6379 39.75 15.9702 39.75 16.3553V20.2436C39.75 20.6405 39.4439 20.9715 39.052 21.01C39.0519 21.01 39.0518 21.01 39.0517 21.01L36.9205 21.213L36.7521 21.2291L36.7043 21.3913C36.4561 22.2354 36.1083 23.0504 35.6706 23.8264L35.5861 23.9762M36.8903 15.3961L35.5861 23.9762M35.5861 23.9762L35.6958 24.1087M35.5861 23.9762L35.6958 24.1087M35.6958 24.1087L37.066 25.7631C37.3195 26.0703 37.2951 26.5239 37.0212 26.7978L34.2902 29.5288C34.0163 29.8027 33.5731 29.8269 33.2661 29.5739L35.6958 24.1087ZM34.0063 23.6087C34.6622 22.6092 35.1308 21.5052 35.3912 20.3387L35.3917 20.3366C35.4601 20.0173 35.7358 19.7718 36.0638 19.7413L36.0642 19.7412L37.9931 19.5585L38.2195 19.537V19.3096V17.2791V17.0525L37.994 17.0303L36.0346 16.8375L36.0328 16.8373C35.696 16.8067 35.4286 16.572 35.3505 16.2396C35.1001 15.0724 34.631 13.968 33.9749 12.9785L33.9736 12.9767C33.7833 12.6951 33.8048 12.3293 34.0204 12.0675L35.2689 10.555L35.4131 10.3804L35.2536 10.2198L33.8525 8.80859L33.6914 8.64631L33.5155 8.79235L32.0238 10.0303C32.0237 10.0304 32.0236 10.0305 32.0235 10.0306C31.7613 10.2463 31.4036 10.268 31.1208 10.0846L31.1204 10.0844C30.1216 9.43931 29.0181 8.97069 27.8514 8.71027L27.8493 8.70982C27.53 8.6414 27.2845 8.36572 27.254 8.03772L27.2538 8.03613L27.061 6.09704L27.0385 5.87179H26.8122H24.3655H24.1155V6.12179V11.8781V12.1916L24.4211 12.1219C25.3183 11.9171 26.2551 11.9169 27.1632 12.122L27.1637 12.1221C30.5724 12.8839 32.7208 16.2632 31.9591 19.6713L31.9589 19.672C31.207 23.0798 27.8284 25.2284 24.42 24.4666L24.1155 24.3986V24.7106V30.4873V30.7373H24.3655H26.8223H27.05L27.0712 30.5106L27.254 28.5614L27.254 28.5612C27.2847 28.2308 27.522 27.9576 27.8482 27.8893L27.8493 27.8891C29.0174 27.6388 30.1226 27.1695 31.1128 26.5129L31.1146 26.5117C31.3962 26.3214 31.762 26.3428 32.0238 26.5584L32.0245 26.559L33.527 27.7874L33.7021 27.9306L33.8621 27.7706L35.2834 26.3493L35.4439 26.1888L35.2995 26.0135L34.061 24.5111C34.061 24.5111 34.061 24.511 34.0609 24.511C33.8452 24.2489 33.8233 23.8914 34.0063 23.6087ZM34.0063 23.6087C34.0062 23.6089 34.0061 23.609 34.006 23.6092L33.797 23.472M34.0063 23.6087C34.0064 23.6085 34.0066 23.6083 34.0067 23.6081L33.797 23.472M33.797 23.472C34.4366 22.4974 34.8934 21.4213 35.1472 20.2842M33.797 23.472L35.1472 20.2842M35.1472 20.2842C35.2386 19.8578 35.6041 19.533 36.0406 19.4923L37.9695 19.3096M35.1472 20.2842L37.9695 19.3096M37.9695 19.3096V17.2791L36.0102 17.0863M37.9695 19.3096L36.0102 17.0863M36.0102 17.0863C35.5635 17.0456 35.2081 16.7309 35.1066 16.2944L36.0102 17.0863ZM31.6011 8.39554L33.2555 7.02529L33.2657 29.5736L31.6112 28.2034L31.4788 28.0936L31.3289 28.1782C30.5546 28.615 29.74 28.9528 28.8845 29.2015L28.7213 29.249L28.7054 29.4182L28.5024 31.5801C28.5024 31.5802 28.5024 31.5804 28.5024 31.5805C28.4637 31.9802 28.1349 32.2779 27.736 32.2779H24.3655H24.1155V32.5279V34.9644C24.1155 35.3847 23.7706 35.7297 23.3503 35.7297C22.9299 35.7297 22.585 35.3847 22.585 34.9644V26.538V26.288H22.335H15.0051H14.8133L14.7636 26.4733C14.2997 28.2033 12.9362 29.5584 11.2034 30.0328C8.50346 30.7582 5.72809 29.171 5.00285 26.4731L4.95309 26.288H4.76142H4.2132C2.03537 26.288 0.259835 24.5306 0.25 22.3547V19.6656C0.259847 17.8784 1.44454 16.323 3.16211 15.8554L3.16223 15.8554L10.1978 13.9366L10.2798 13.9142L10.3311 13.8465L14.5132 8.33468C14.5133 8.33455 14.5134 8.33442 14.5135 8.33429C15.4615 7.0964 16.9415 6.36163 18.4975 6.36163H22.335H22.585V6.11163V1.03549C22.585 0.615188 22.9299 0.270264 23.3503 0.270264C23.7706 0.270264 24.1155 0.615188 24.1155 1.03549V4.08118V4.33118H24.3655H27.736C28.1364 4.33118 28.4641 4.63045 28.5024 5.01886C28.5024 5.019 28.5025 5.01914 28.5025 5.01928L28.7054 7.17065L28.7213 7.33923L28.8838 7.38701C29.7286 7.6355 30.5533 7.9833 31.3176 8.42006L31.4678 8.50591L31.6011 8.39554ZM22.335 24.7474H22.585V24.4974V8.15224V7.90224H22.335H18.5076C17.4256 7.90224 16.3973 8.40484 15.7403 9.2697C15.7402 9.26982 15.7401 9.26995 15.74 9.27007L11.3342 15.0463L11.3341 15.0463L11.3303 15.0516C11.2362 15.1819 11.0946 15.2746 10.9276 15.3226C10.9271 15.3228 10.9267 15.3229 10.9262 15.323L3.55858 17.3324L3.55705 17.3328C2.50544 17.6268 1.78162 18.5769 1.7703 19.6623V19.6649L1.7703 22.3451L1.77031 22.3473C1.78162 23.682 2.86756 24.7581 4.20401 24.7474H4.60914H4.82972L4.85719 24.5286C5.14756 22.2153 6.96684 20.3969 9.26833 20.1162C12.0359 19.7873 14.5605 21.7518 14.899 24.5277L14.9258 24.7474H15.1472H22.335ZM24.2864 13.7526L24.1155 13.8096V13.9898V22.6091V22.7899L24.2872 22.8465C25.2619 23.1679 26.3219 23.1679 27.2965 22.8465L27.297 22.8464C29.8133 22.0112 31.1743 19.3116 30.3388 16.7943C29.5036 14.2779 26.7938 12.9169 24.2864 13.7526ZM6.34899 25.1573C6.34899 27.1025 7.933 28.6865 9.87817 28.6865C11.834 28.6865 13.4074 27.102 13.4074 25.1573C13.4074 23.2121 11.8234 21.6281 9.87817 21.6281C7.933 21.6281 6.34899 23.2121 6.34899 25.1573Z" fill="#FD7900" stroke="#353535" stroke-width="0.5"/>
</svg>
