<svg width="10" height="14" viewBox="0 0 10 14" fill="none" xmlns="http://www.w3.org/2000/svg">
<path d="M2.856 8.12C1.592 7.64 0.96 6.368 0.96 4.304C0.96 3.312 1.128 2.512 1.464 1.904C1.816 1.296 2.384 0.847999 3.168 0.56C3.968 0.272 5.032 0.128 6.36 0.128H9.048V14H6.504V8.528C6.232 8.528 5.824 8.512 5.28 8.48L3 14H0.24L2.856 8.12ZM6.504 7.04V1.592H6.24C5.12 1.608 4.344 1.816 3.912 2.216C3.48 2.616 3.264 3.312 3.264 4.304C3.264 5.248 3.472 5.936 3.888 6.368C4.32 6.8 5.096 7.024 6.216 7.04H6.504Z" fill="#E30E0E"/>
</svg>
